{"title":"Remember Me*2010*[BluRay][720p][ENG, POL]","uid":5857694,"size":5074297042,"categoryP":"video","categoryS":"hd___movies","magnet":"?xt=urn:btih:6523a4ff24bf2d81bfece21973486e9af36dd505&amp;dn=Remember+Me%2A2010%2A%5BBluRay%5D%5B720p%5D%5BENG%2C+POL%5D&amp;tr=udp%3A%2F%2Ftracker.openbittorrent.com%3A80&amp;tr=udp%3A%2F%2Fopen.demonii.com%3A1337&amp;tr=udp%3A%2F%2Ftracker.coppersurfer.tk%3A6969&amp;tr=udp%3A%2F%2Fexodus.desync.com%3A6969","seeders":0,"leechers":1,"uploader":"albedo040","files":1,"time":1285866093,"description":"Remember Me*2010*[BluRay][720p][ENG, POL]\n\nGeneral information:\nCountry: USA\nRelease: 1 March 2010\nGenre: Drama, Romance \nDirector: Allen Coulter\nScreenplay: Will Fetters, Jenny Lumet\nOriginal Music: Marcelo Zarvos\nCinematography by: Jonathan Freeman  \nDuration: 1h 52mn\nLanguage: English, Polish\nSubtitles: English, Polish\nRating: 7.8/10 - 9892 votes \n\nCast:\nRobert Pattinson  ...  Tyler Hawkins  \nCaitlyn Rund  ...  Alyssa Craig (11 yrs) (as Caitlyn Paige Rund)  \nMoisÃƒÂ©s Acevedo  ...  Mugger  \nEmilie de Ravin  ...  Ally Craig  \nNoel Rodriguez  ...  Mugger  \nKevin P. McCarthy  ...  Police Chief (as Kevin McCarthy)  \nChris Cooper  ...  Sgt. Neil Craig  \nAthena Currey  ...  Toothbrush Girl  \nLena Olin  ...  Diane Hirsch  \nGregory Jbara  ...  Les Hirsch  \nRuby Jerins  ...  Caroline Hawkins  \nPierce Brosnan  ...  Charles Hawkins  \nAngela Pietropinto  ...  Diner Waitress  \nTate Ellington  ...  Aidan Hall  \nDavid Deblinger  ...  NYU Professor  \n\nPlot:\nA romantic drama centered on two new lovers: Tyler, whose parents have split in the wake of his brother's suicide, and Ally, who lives each day to the fullest since witnessing her mother's murder.\n\nSpecifications:\nGeneral\nFormat                           : Matroska\nOverall bit rate                 : 6 023 Kbps\n\nVideo\nFormat                           : AVC\nFormat/Info                      : Advanced Video Codec\nFormat profile                   : &lt;a class=&quot;__cf_email__&quot; href=&quot;/cdn-cgi/l/email-protection&quot; data-cfemail=&quot;d39bbab4bb939fe7fde2&quot;&gt;[email&amp;#160;protected]&lt;/a&gt;&lt;script cf-hash='f9e31' type=&quot;text/javascript&quot;&gt;\n/* &lt;![CDATA[ */!function(){try{var t=&quot;currentScript&quot;in document?document.currentScript:function(){for(var t=document.getElementsByTagName(&quot;script&quot;),e=t.length;e--;)if(t[e].getAttribute(&quot;cf-hash&quot;))return t[e]}();if(t&amp;&amp;t.previousSibling){var e,r,n,i,c=t.previousSibling,a=c.getAttribute(&quot;data-cfemail&quot;);if(a){for(e=&quot;&quot;,r=parseInt(a.substr(0,2),16),n=2;a.length-n;n+=2)i=parseInt(a.substr(n,2),16)^r,e+=String.fromCharCode(i);e=document.createTextNode(e),c.parentNode.replaceChild(e,c)}}}catch(u){}}();/* ]]&gt; */&lt;/script&gt;\nFormat settings, CABAC           : Yes\nFormat settings, ReFrames        : 5 frames\nMuxing mode                      : Container profile=&lt;a class=&quot;__cf_email__&quot; href=&quot;/cdn-cgi/l/email-protection&quot; data-cfemail=&quot;6732090c0908100927534956&quot;&gt;[email&amp;#160;protected]&lt;/a&gt;&lt;script cf-hash='f9e31' type=&quot;text/javascript&quot;&gt;\n/* &lt;![CDATA[ */!function(){try{var t=&quot;currentScript&quot;in document?document.currentScript:function(){for(var t=document.getElementsByTagName(&quot;script&quot;),e=t.length;e--;)if(t[e].getAttribute(&quot;cf-hash&quot;))return t[e]}();if(t&amp;&amp;t.previousSibling){var e,r,n,i,c=t.previousSibling,a=c.getAttribute(&quot;data-cfemail&quot;);if(a){for(e=&quot;&quot;,r=parseInt(a.substr(0,2),16),n=2;a.length-n;n+=2)i=parseInt(a.substr(n,2),16)^r,e+=String.fromCharCode(i);e=document.createTextNode(e),c.parentNode.replaceChild(e,c)}}}catch(u){}}();/* ]]&gt; */&lt;/script&gt;\nCodec ID                         : V_MPEG4/ISO/AVC\nBit rate                         : 4 068 Kbps\nWidth                            : 1 280 pixels\nHeight                           : 720 pixels\nDisplay aspect ratio             : 16:9\nFrame rate                       : 23.976 fps\n\nAudio 1\nFormat                           : DTS\nFormat/Info                      : Digital Theater Systems\nCodec ID                         : A_DTS\nBit rate mode                    : Constant\nBit rate                         : 1 510 Kbps\nChannel(s)                       : 6 channels\nChannel positions                : Front: L C R, Side: L R, LFE\nSampling rate                    : 48.0 KHz\nBit depth                        : 24 bits\nStream size                      : 1.18 GiB (25%)\nTitle                            : English_DTS\n\nAudio 2\nFormat                           : AC-3\nFormat/Info                      : Audio Coding 3\nMode extension                   : CM (complete main)\nCodec ID                         : A_AC3\nBit rate mode                    : Constant\nBit rate                         : 448 Kbps\nChannel(s)                       : 6 channels\nChannel positions                : Front: L C R, Side: L R, LFE\nSampling rate                    : 48.0 KHz\nBit depth                        : 16 bits\nStream size                      : 360 MiB (7%)\nTitle                            : Polish_AC3\nLanguage                         : Polish\n\nText 1\nFormat                           : UTF-8\nCodec ID                         : S_TEXT/UTF8\nCodec ID/Info                    : UTF-8 Plain Text\nTitle                            : English_SUB\n\nText 2\nFormat                           : UTF-8\nCodec ID                         : S_TEXT/UTF8\nCodec ID/Info                    : UTF-8 Plain Text\nTitle                            : Polish_SUB\n","torrent":{"xt":"urn:btih:6523a4ff24bf2d81bfece21973486e9af36dd505","amp;dn":"Remember+Me%2A2010%2A%5BBluRay%5D%5B720p%5D%5BENG%2C+POL%5D","amp;tr":["udp%3A%2F%2Ftracker.openbittorrent.com%3A80","udp%3A%2F%2Fopen.demonii.com%3A1337","udp%3A%2F%2Ftracker.coppersurfer.tk%3A6969","udp%3A%2F%2Fexodus.desync.com%3A6969"],"infoHash":"6523a4ff24bf2d81bfece21973486e9af36dd505","infoHashBuffer":{"type":"Buffer","data":[101,35,164,255,36,191,45,129,191,236,226,25,115,72,110,154,243,109,213,5]},"announce":[],"urlList":[]}}